<?xml version="1.0" encoding="UTF-8"?>
<svg id="Layer_5" data-name="Layer 5" xmlns="http://www.w3.org/2000/svg" viewBox="0 0 32.17 35.01">
  <defs>
    <style>
      .cls-1, .cls-2 {
        fill: #f6d419;
      }

      .cls-2 {
        fill-rule: evenodd;
      }
    </style>
  </defs>
  <path class="cls-2" d="M3.14,15.25c0,.11.05.22.13.28h.01s.02.03.02.03l8.18,5.83h0c.06.04.12.06.2.06h2.97c.15,0,.29-.11.32-.26.02-.14-.04-.26-.15-.32h-.01s-.6-.35-.6-.35c-.11-.06-.18-.17-.2-.3l-.81-7.03v-.04s0-.01,0-.01c-.03-.17-.18-.29-.36-.29-.01,0-.02,0-.03,0l-.08.02-9.29,2.03c-.17.03-.29.18-.29.36Z"/>
  <path class="cls-2" d="M12.69,11.84c0,.07-.05.14-.11.16h0s-.03,0-.03,0h0s-5.4,1.2-5.4,1.2h-.01s-.04,0-.06.01c-.17,0-.31-.11-.35-.27v-.05s-.85-4.71-.85-4.71v-.04s0-.02,0-.04c0-.2.15-.36.35-.36.06,0,.11.01.16.04l.06.04h0s6.18,3.88,6.18,3.88c.04.03.07.08.08.14Z"/>
  <path class="cls-2" d="M28.61,15.25c0,.11-.05.22-.13.28h-.01s-.02.03-.02.03l-8.18,5.83h0c-.06.04-.12.06-.2.06h-2.97c-.16,0-.3-.11-.32-.26-.02-.14.04-.26.15-.32h.01s.6-.35.6-.35c.11-.06.19-.18.2-.3l.81-7.03v-.04s0-.01,0-.01c.03-.17.18-.29.36-.29.01,0,.02,0,.03,0l.08.02,9.29,2.03c.17.03.29.18.29.36Z"/>
  <path class="cls-2" d="M19.05,11.84c0,.07.05.14.11.16h0s.03,0,.03,0h0s5.4,1.2,5.4,1.2h.01s.04,0,.06.01c.17,0,.31-.11.35-.27v-.05s.85-4.71.85-4.71v-.04s0-.02,0-.04c0-.2-.15-.36-.35-.36-.06,0-.11.01-.16.04l-.06.04h0s-6.18,3.88-6.18,3.88c-.04.03-.07.08-.08.14Z"/>
  <path class="cls-2" d="M18,11.3l-1.18,8.49c-.01.07-.06.14-.12.18l-.73.39c-.07.04-.16.04-.23,0l-.73-.39c-.07-.04-.11-.1-.12-.18l-1.18-8.49c-.01-.08.02-.15.07-.21l1.8-1.68c.15-.14.39-.14.54,0l1.79,1.68c.06.05.08.13.07.21Z"/>
  <path class="cls-1" d="M19.09,10.01h0s-.06.03-.1.04l-.85.18c-.08.02-.15,0-.21-.06l-1.79-1.67c-.15-.14-.39-.14-.54,0l-1.78,1.66c-.08.07-.18.1-.28.08l-.8-.17s-.07-.02-.1-.04h0c-.17-.11-.23-.32-.15-.5l3.02-6.79c.14-.31.58-.31.72,0l3.01,6.77c.08.18.02.39-.15.5Z"/>
  <path class="cls-2" d="M19.77,32.25v.02c0,.13-.11.24-.24.24h-7.35c-.13,0-.24-.11-.24-.24v-.02c0-.08.04-.15.1-.19l1.44-1.03c.16-.12.27-.3.29-.5l.72-6.23c.03-.26-.08-.51-.29-.66l-1.45-1.03c-.06-.04-.1-.11-.1-.19h0c0-.13.1-.23.23-.23h5.95c.13,0,.23.1.23.23h0c0,.07-.04.14-.1.19l-1.48,1.05c-.21.15-.32.4-.29.66l.72,6.2c.02.2.13.38.29.5l1.47,1.04c.06.04.1.12.1.19Z"/>
</svg>