<?xml version="1.0" encoding="UTF-8"?>
<svg id="Layer_5" data-name="Layer 5" xmlns="http://www.w3.org/2000/svg" viewBox="0 0 138.89 35.01">
  <defs>
    <style>
      .cls-1, .cls-2 {
        fill: #f6d419;
      }

      .cls-2 {
        fill-rule: evenodd;
      }
    </style>
  </defs>
  <g>
    <path class="cls-1" d="M43.46,15.95c.57,0,1.54.28,1.54.69,0,1.02-4.51,8.85-4.51,9.41,0,.11-.1.17-.24.17-.32,0-.9-.29-.9-.59,0-.45.48-1.62,1.09-3-.98.88-2.24,1.48-3.85,1.48-4.01,0-5.6-1.97-5.6-4.52,0-4.58,5.14-10.97,10.74-10.97,2.38,0,3.32,1.09,3.32,2.51,0,2.61-3.18,6.29-6.44,6.29-.34,0-.73-.39-.73-.63,0-.1.07-.17.25-.17,2.16,0,5.32-3.91,5.32-5.95,0-.71-.39-1.19-1.34-1.19-4.09,0-8.57,6.7-8.57,10.74,0,1.75.84,3.01,2.93,3.01,3.99,0,6.58-6.56,6.58-7.13,0-.11.17-.15.41-.15Z"/>
    <path class="cls-1" d="M52.3,17.8c.17,0,.48.14.48.24-.07,0-1.16,2.35-3.32,3.04-.76.9-1.72,1.55-2.69,1.55-1.22,0-1.72-.8-1.72-1.86,0-2.07,1.93-5.14,4.31-5.14,1.18,0,1.65.73,1.65,1.71,0,.77-.28,1.7-.76,2.55,1.19-.74,1.82-1.92,1.96-2.06.01-.01.04-.03.08-.03ZM46.9,21.14c0,.34.13.55.43.55.22,0,.49-.17.77-.43-.28-.06-.42-.22-.42-.38,0-.41.5-.29,1.05-.39.77-1.08,1.44-2.59,1.44-3.38,0-.32-.11-.53-.38-.53-.95,0-2.9,3.25-2.9,4.57ZM49.18,14.72s.07-.07.1-.11c.28-.39.66-.76.98-1.44.03-.07.04-.27.55-.29.35-.01,1.16.28,1.12.55-.03.2-2.1,1.86-2.58,1.78-.28-.04-.27-.31-.17-.48Z"/>
    <path class="cls-1" d="M58.37,17.77c.17,0,.48.14.48.24,0-.07-2.44,4.62-5.13,4.62-1.83,0-2.55-.91-2.55-2.07,0-2.07,2.23-4.93,4.45-4.93,1.23,0,1.68.63,1.68,1.37,0,1.09-.94,2.41-1.75,2.41-.38,0-.64-.46-.64-.69,0-.07.03-.13.08-.13.67,0,1.53-1.05,1.53-1.55,0-.15-.08-.27-.28-.27-1.41,0-2.96,2.69-2.96,4.17,0,.56.22.94.76.94,1.96,0,3.96-3.81,4.24-4.09.01-.01.04-.03.08-.03Z"/>
    <path class="cls-1" d="M83.74,8.63c.62,0,1.54.32,1.54.57,0,.03-.01.06-.04.08-.22.22-7.45,12.08-7.45,14.54,0,.28.17.39.17.46,0,.14-.34.24-.77.24-.81,0-1.99-.32-1.99-1.2,0-.34.53-1.47,1.33-2.98-.6-.22-1.26-.62-1.93-1.08-3.19,3.63-6.71,6.88-9.9,6.88-2.4,0-3.47-1.46-3.47-3.29,0-3.08,3.05-7.23,8.07-7.23,1.88,0,3.36.67,4.58,1.47,3.96-4.3,7.77-8.46,9.78-8.46h.1ZM72.93,18.11c-1.29-.88-2.59-1.67-3.7-1.67-3.6,0-6.14,4.79-6.14,7.37,0,.92.34,1.57,1.09,1.57,1.86,0,5.24-3.49,8.74-7.27ZM77.06,19.34c1.55-2.89,3.74-6.61,5.06-8.78-1.74,1.55-4.06,4.66-6.65,7.69.6.46,1.12.85,1.6,1.09Z"/>
    <path class="cls-1" d="M89.35,17.79c.17,0,.46.14.46.24,0,0,0,.01-.01.03-.2.2-2.47,4.59-3.78,4.59-1.06,0-2.07-.55-2.07-1.39,0-.39.94-2.25,1.79-3.73-1.5,1.65-3.82,4.76-3.82,4.89s-.17.18-.41.18c-.57,0-1.55-.32-1.55-.71,0-.69,2.8-5.83,3.1-6.14.1-.1.27-.14.48-.14.59,0,1.43.32,1.43.57,0,.03-.01.06-.04.08-.11.11-.81,1.4-1.5,2.79,1.32-1.69,2.91-3.45,3.7-3.45.46,0,1.46.6,1.46.97,0,.06-.01.1-.06.14-.21.2-2.42,4.05-2.42,4.89,0,.1.04.15.11.15.69,0,2.84-3.74,3.05-3.95.01-.01.06-.03.1-.03Z"/>
    <path class="cls-1" d="M114.58,10.06c0,.07-.04.1-.11.1-2.72,0-7.21,14.15-10.58,14.15-1.3,0-1.79-.95-1.79-2.4,0-2.84,1.93-7.58,3.31-10.52-2.94,4.51-8.25,14.75-11.56,14.75-1.06,0-1.67-1.3-1.67-1.81,0-.11.03-.18.1-.18,4.08,0,11.82-15.49,14.72-15.49.08-.01.17-.01.27-.01.66,0,1.65.31,1.65.56,0,.03-.01.06-.04.08-.88.87-5.07,11.84-5.07,13.6,0,.15.03.24.1.24,1.56,0,6.12-14.5,9.13-14.5.5,0,1.54,1.11,1.54,1.43Z"/>
    <path class="cls-1" d="M118.22,17.77c.17,0,.49.15.49.25,0,.01-.01.01-.01.03-.21.2-2.47,4.59-3.8,4.59-1.06,0-2.07-.55-2.07-1.39,0-.41.94-2.25,1.79-3.73-1.5,1.65-3.82,4.76-3.82,4.89s-.17.18-.41.18c-.57,0-1.55-.32-1.55-.71,0-.69,4.58-9.32,4.89-9.62.1-.1.27-.14.48-.14.59,0,1.41.32,1.41.56,0,.04-.01.07-.04.1-.14.14-1.89,3.49-3.22,6.19,1.3-1.67,2.87-3.36,3.64-3.36.46,0,1.46.59,1.46.97,0,.06-.01.1-.06.14-.2.2-2.42,4.06-2.42,4.89,0,.1.04.15.11.15.69,0,2.84-3.74,3.05-3.96.01-.01.04-.03.08-.03Z"/>
    <path class="cls-1" d="M121.8,17.77c.17,0,.46.14.46.24t-.01.03c-.2.2-2.47,4.59-3.78,4.59-1.06,0-2.07-.55-2.07-1.39,0-.67,2.54-5.17,2.84-5.48.1-.1.27-.14.48-.14.59,0,1.43.32,1.43.57,0-.1-2.59,4.41-2.59,5.39,0,.1.03.15.1.15.67,0,2.84-3.74,3.05-3.95.01-.01.06-.03.1-.03ZM122.23,14.44c-.06.13-.71.7-.67.62.03.03-.1.04-.25.04-.42,0-1.72-.08-1.82-.21s-.08-.78.53-.78c1.11,0,2.27.22,2.21.34Z"/>
    <path class="cls-1" d="M127.88,17.77c.17,0,.48.14.48.24,0-.07-2.44,4.62-5.13,4.62-1.83,0-2.55-.91-2.55-2.07,0-2.07,2.23-4.93,4.45-4.93,1.22,0,1.68.55,1.68,1.27,0,1.4-1.75,3.46-3.19,3.46-.24,0-.45-.06-.66-.17-.08.29-.13.57-.13.81,0,.53.21.88.71.88,1.96,0,3.96-3.81,4.24-4.09.01-.01.04-.03.08-.03ZM123.27,19.32c.08.04.17.06.27.06,1.02,0,2.38-1.91,2.38-2.54,0-.13-.06-.2-.17-.2-.85,0-1.9,1.34-2.48,2.68ZM123.79,14.52c0-.32,1.51-1.88,2.73-1.88.21,0,.34.04.34.14,0,.41.5,1.65.67,1.83.03.03.04.07.04.13,0,.27-.28.67-.67.67-.45,0-.78-1.08-1.15-1.71-.53.39-1.53,1.12-1.76,1.12-.1,0-.2-.15-.2-.31Z"/>
    <path class="cls-1" d="M135.23,17.79c.17,0,.46.14.46.24,0,0,0,.01-.01.03-.2.2-2.47,4.59-3.78,4.59-1.06,0-2.07-.55-2.07-1.39,0-.39.94-2.25,1.79-3.73-1.5,1.65-3.82,4.76-3.82,4.89s-.17.18-.41.18c-.57,0-1.55-.32-1.55-.71,0-.69,2.8-5.83,3.1-6.14.1-.1.27-.14.48-.14.59,0,1.43.32,1.43.57,0,.03-.01.06-.04.08-.11.11-.81,1.4-1.5,2.79,1.32-1.69,2.91-3.45,3.7-3.45.46,0,1.46.6,1.46.97,0,.06-.01.1-.06.14-.21.2-2.42,4.05-2.42,4.89,0,.1.04.15.11.15.69,0,2.84-3.74,3.05-3.95.01-.01.06-.03.1-.03Z"/>
  </g>
  <g>
    <path class="cls-2" d="M3.09,15.25c0,.11.05.22.13.28h.01s.02.03.02.03l8.18,5.83h0c.06.04.12.06.2.06h2.97c.15,0,.29-.11.32-.26.02-.14-.04-.26-.15-.32h-.01s-.6-.35-.6-.35c-.11-.06-.18-.17-.2-.3l-.81-7.03v-.04s0-.01,0-.01c-.03-.17-.18-.29-.36-.29-.01,0-.02,0-.03,0l-.08.02-9.29,2.03c-.17.03-.29.18-.29.36Z"/>
    <path class="cls-2" d="M12.65,11.84c0,.07-.05.14-.11.16h0s-.03,0-.03,0h0s-5.4,1.2-5.4,1.2h-.01s-.04,0-.06.01c-.17,0-.31-.11-.35-.27v-.05s-.85-4.71-.85-4.71v-.04s0-.02,0-.04c0-.2.15-.36.35-.36.06,0,.11.01.16.04l.06.04h0s6.18,3.88,6.18,3.88c.04.03.07.08.08.14Z"/>
    <path class="cls-2" d="M28.56,15.25c0,.11-.05.22-.13.28h-.01s-.02.03-.02.03l-8.18,5.83h0c-.06.04-.12.06-.2.06h-2.97c-.16,0-.3-.11-.32-.26-.02-.14.04-.26.15-.32h.01s.6-.35.6-.35c.11-.06.19-.18.2-.3l.81-7.03v-.04s0-.01,0-.01c.03-.17.18-.29.36-.29.01,0,.02,0,.03,0l.08.02,9.29,2.03c.17.03.29.18.29.36Z"/>
    <path class="cls-2" d="M19.01,11.84c0,.07.05.14.11.16h0s.03,0,.03,0h0s5.4,1.2,5.4,1.2h.01s.04,0,.06.01c.17,0,.31-.11.35-.27v-.05s.85-4.71.85-4.71v-.04s0-.02,0-.04c0-.2-.15-.36-.35-.36-.06,0-.11.01-.16.04l-.06.04h0s-6.18,3.88-6.18,3.88c-.04.03-.07.08-.08.14Z"/>
    <path class="cls-2" d="M17.96,11.3l-1.18,8.49c-.01.07-.06.14-.12.18l-.73.39c-.07.04-.16.04-.23,0l-.73-.39c-.07-.04-.11-.1-.12-.18l-1.18-8.49c-.01-.08.02-.15.07-.21l1.8-1.68c.15-.14.39-.14.54,0l1.79,1.68c.06.05.08.13.07.21Z"/>
    <path class="cls-1" d="M19.05,10.01h0s-.06.03-.1.04l-.85.18c-.08.02-.15,0-.21-.06l-1.79-1.67c-.15-.14-.39-.14-.54,0l-1.78,1.66c-.08.07-.18.1-.28.08l-.8-.17s-.07-.02-.1-.04h0c-.17-.11-.23-.32-.15-.5l3.02-6.79c.14-.31.58-.31.72,0l3.01,6.77c.08.18.02.39-.15.5Z"/>
    <path class="cls-2" d="M19.73,32.25v.02c0,.13-.11.24-.24.24h-7.35c-.13,0-.24-.11-.24-.24v-.02c0-.08.04-.15.1-.19l1.44-1.03c.16-.12.27-.3.29-.5l.72-6.23c.03-.26-.08-.51-.29-.66l-1.45-1.03c-.06-.04-.1-.11-.1-.19h0c0-.13.1-.23.23-.23h5.95c.13,0,.23.1.23.23h0c0,.07-.04.14-.1.19l-1.48,1.05c-.21.15-.32.4-.29.66l.72,6.2c.02.2.13.38.29.5l1.47,1.04c.06.04.1.12.1.19Z"/>
  </g>
</svg>